<?xml version="1.0" standalone="no"?>
<!DOCTYPE svg PUBLIC "-//W3C//DTD SVG 20010904//EN"
 "http://www.w3.org/TR/2001/REC-SVG-20010904/DTD/svg10.dtd">
<svg version="1.0" xmlns="http://www.w3.org/2000/svg"
 width="124.000000pt" height="124.000000pt" viewBox="0 0 124.000000 124.000000"
 preserveAspectRatio="xMidYMid meet">
<metadata>
Created by potrace 1.11, written by Peter Selinger 2001-2013
</metadata>
<g transform="translate(0.000000,124.000000) scale(0.100000,-0.100000)"
fill="#000000" stroke="none">
<path d="M225 1179 c-17 -5 -45 -21 -63 -37 -61 -55 -62 -63 -62 -474 0 -357
1 -373 21 -415 11 -24 25 -43 31 -43 6 0 7 -7 4 -16 -3 -8 -2 -13 3 -9 5 3 17
-2 25 -11 9 -8 16 -13 16 -9 0 3 9 1 20 -5 20 -10 729 -16 777 -6 40 9 80 35
109 73 l29 38 3 380 c2 252 0 392 -8 417 -13 47 -71 105 -118 118 -46 12 -744
12 -787 -1z"/>
</g>
</svg>
